<svg width="94" height="94" viewBox="0 0 94 94" fill="none" xmlns="http://www.w3.org/2000/svg">
<g filter="url(#filter0_d_127_664)">
<path d="M90 43C90 66.7483 70.7483 86 47 86C23.2517 86 4 66.7483 4 43C4 19.2517 23.2517 0 47 0C70.7483 0 90 19.2517 90 43ZM42.0262 65.7682L73.9294 33.8649C75.0128 32.7816 75.0128 31.025 73.9294 29.9417L70.0062 26.0185C68.9229 24.935 67.1663 24.935 66.0828 26.0185L40.0645 52.0366L27.9172 39.8893C26.8339 38.8059 25.0773 38.8059 23.9938 39.8893L20.0706 43.8125C18.9872 44.8958 18.9872 46.6524 20.0706 47.7357L38.1028 65.768C39.1863 66.8515 40.9427 66.8515 42.0262 65.7682Z" fill="#18ADE5"/>
</g>
<defs>
<filter id="filter0_d_127_664" x="0.754717" y="0" width="92.4906" height="93.3019" filterUnits="userSpaceOnUse" color-interpolation-filters="sRGB">
<feFlood flood-opacity="0" result="BackgroundImageFix"/>
<feColorMatrix in="SourceAlpha" type="matrix" values="0 0 0 0 0 0 0 0 0 0 0 0 0 0 0 0 0 0 127 0" result="hardAlpha"/>
<feOffset dy="4.0566"/>
<feGaussianBlur stdDeviation="1.62264"/>
<feComposite in2="hardAlpha" operator="out"/>
<feColorMatrix type="matrix" values="0 0 0 0 0 0 0 0 0 0 0 0 0 0 0 0 0 0 0.33 0"/>
<feBlend mode="normal" in2="BackgroundImageFix" result="effect1_dropShadow_127_664"/>
<feBlend mode="normal" in="SourceGraphic" in2="effect1_dropShadow_127_664" result="shape"/>
</filter>
</defs>
</svg>
